<?xml version="1.0" encoding="UTF-8"?>
<svg width="1157px" height="190px" viewBox="0 0 1157 190" version="1.1" xmlns="http://www.w3.org/2000/svg" xmlns:xlink="http://www.w3.org/1999/xlink">
    <!-- Generator: Sketch 48.1 (47250) - http://www.bohemiancoding.com/sketch -->
    <title>cta-overlay</title>
    <desc>Created with Sketch.</desc>
    <defs>
        <rect id="path-1" x="0" y="0" width="1440" height="190"></rect>
    </defs>
    <g id="Page-1" stroke="none" stroke-width="1" fill="none" fill-rule="evenodd">
        <g id="cta-overlay" transform="translate(-283.000000, 0.000000)">
            <g id="Mask" opacity="0" fill="#08B519" fill-rule="nonzero">
                <rect id="path-1" x="0" y="0" width="1440" height="190"></rect>
            </g>
            <g id="Clipped">
                <mask id="mask-2" fill="white">
                    <use xlink:href="#path-1"></use>
                </mask>
                <g id="path-1"></g>
                <g id="Group" opacity="0.427536232" mask="url(#mask-2)">
                    <g transform="translate(232.000000, -169.000000)">
                        <g transform="translate(791.212962, 263.970368) scale(-1, 1) rotate(5.000000) translate(-791.212962, -263.970368) translate(14.212962, 66.970368)">
                            <path d="M4.28165594,154.051776 C116.020797,133.542887 191.357015,123.288442 230.29031,123.288442 C455.356395,123.288442 579.827644,171.702463 699.800917,174.952495 C762.476793,176.650361 884.661173,152.570445 982.452157,158.757817 C1068.02967,164.172426 1195.42718,206.170616 1328.35551,205.248911 C1358.53779,205.039632 1394.33871,212.955391 1435.75829,228.99619 L1422.52001,270.437199 L4.28165594,270.437199 L4.28165594,154.051776 Z" id="Rectangle-2" fill="#10A91F" fill-rule="nonzero" transform="translate(720.019971, 196.862820) scale(-1, 1) rotate(-10.000000) translate(-720.019971, -196.862820) "></path>
                            <path d="M3.39772748,200.521169 C124.177871,180.01228 205.609669,169.757835 247.693121,169.757835 C490.969682,169.757835 625.512109,218.171856 755.192621,221.421888 C822.939708,223.119754 955.010232,199.039838 1060.71365,205.22721 C1153.21538,210.641819 1290.92084,252.640009 1434.60462,251.718304 C1467.22899,251.509025 1505.92663,259.424784 1550.69754,275.465583 L1536.38813,316.906592 L3.39772748,316.906592 L3.39772748,200.521169 Z" id="Rectangle-2-Copy" fill="#36C043" fill-rule="nonzero" transform="translate(777.047634, 243.332213) rotate(-3.000000) translate(-777.047634, -243.332213) "></path>
                            <path d="M0.135102669,223.983876 C113.16178,213.992961 189.141766,208.997504 228.07506,208.997504 C453.141146,208.997504 575.681091,239.678461 695.654364,242.568315 C758.33024,244.078018 880.51462,222.66671 978.305604,228.16838 C1063.88312,232.982925 1191.28062,270.32675 1324.20895,269.507191 C1354.39123,269.321105 1390.19216,276.359616 1431.61173,290.622726 L1418.37345,327.471118 L0.135102669,327.471118 L0.135102669,223.983876 Z" id="Rectangle-2" fill="#10A91F" fill-rule="nonzero"></path>
                        </g>
                    </g>
                </g>
            </g>
        </g>
    </g>
</svg>