<?xml version="1.0" encoding="utf-8"?>
<!-- Generator: Adobe Illustrator 20.1.0, SVG Export Plug-In . SVG Version: 6.00 Build 0)  -->
<svg version="1.1" id="Layer_1" xmlns="http://www.w3.org/2000/svg" xmlns:xlink="http://www.w3.org/1999/xlink" x="0px" y="0px"
	 viewBox="0 0 41 37.4" style="enable-background:new 0 0 41 37.4;" xml:space="preserve">
<style type="text/css">
	.st0{fill:#5D5D5D;}
</style>
<g>
	<path class="st0" d="M20.5,8.2l2.1,6.5l0.5,1.7h1.7H33L26.5,21l-1.4,1l0.6,1.7l2.3,7l-6-4.3l-1.4-1l-1.4,1l-6,4.3l2.3-7L16,22
		l-1.4-1L8,16.3h8.1h1.7l0.5-1.7L20.5,8.2 M20.5,0.5l-4.4,13.4H0.5l12.6,9l-4.6,14l12-8.6l12,8.6l-4.6-14l12.6-9H24.9L20.5,0.5
		L20.5,0.5z M40.5,13.9L40.5,13.9L40.5,13.9z"/>
</g>
</svg>
