<?xml version="1.0" encoding="utf-8"?>
<!-- Generator: Adobe Illustrator 15.0.0, SVG Export Plug-In . SVG Version: 6.00 Build 0)  -->
<!DOCTYPE svg PUBLIC "-//W3C//DTD SVG 1.1//EN" "http://www.w3.org/Graphics/SVG/1.1/DTD/svg11.dtd">
<svg version="1.1" id="Layer_1" xmlns="http://www.w3.org/2000/svg" xmlns:xlink="http://www.w3.org/1999/xlink" x="0px" y="0px"
	 width="30.24px" height="41.04px" viewBox="0 0 30.24 41.04" enable-background="new 0 0 30.24 41.04" xml:space="preserve">
<g>
	<g>
		<path fill="#5D5D5D" d="M2.499,32.549c-0.236,0-0.454-0.154-0.522-0.394c-0.083-0.288,0.083-0.591,0.372-0.674
			c2.338-0.676,5.647-1.963,8.135-4.256c4.516-4.162,4.306-8.972,4.303-9.02c-0.017-0.3,0.213-0.557,0.514-0.574
			c0.295-0.015,0.557,0.213,0.573,0.514c0.012,0.217,0.238,5.374-4.652,9.88c-2.644,2.438-6.12,3.793-8.571,4.502
			C2.6,32.542,2.549,32.549,2.499,32.549z"/>
	</g>
	<g>
		<path fill="#5D5D5D" d="M3.43,34.327c-0.233,0-0.449-0.151-0.521-0.387c-0.087-0.287,0.075-0.592,0.362-0.679
			c9.54-2.903,12.336-8.905,13.154-12.224c0.072-0.292,0.367-0.47,0.659-0.398c0.292,0.072,0.47,0.367,0.398,0.659
			c-0.874,3.542-3.84,9.944-13.895,13.004C3.536,34.319,3.483,34.327,3.43,34.327z"/>
	</g>
	<g>
		<path fill="#5D5D5D" d="M10.771,25.079c-0.119,0-0.239-0.039-0.339-0.119c-0.235-0.188-0.273-0.531-0.085-0.766
			c2.393-2.994,2.462-5.897,2.463-5.926c0-1.391,1.138-2.528,2.536-2.528c1.398,0,2.536,1.137,2.536,2.536
			c0,0.301-0.244,0.544-0.544,0.544c-0.301,0-0.544-0.244-0.544-0.544c0-0.798-0.65-1.447-1.448-1.447
			c-0.798,0-1.448,0.649-1.448,1.447c-0.002,0.142-0.078,3.315-2.701,6.598C11.089,25.008,10.931,25.079,10.771,25.079z"/>
	</g>
	<g>
		<path fill="#5D5D5D" d="M1.836,30.61c-0.235,0-0.453-0.154-0.522-0.393c-0.084-0.288,0.082-0.59,0.371-0.674
			c2.773-0.808,5.096-1.998,6.902-3.54c0.229-0.195,0.573-0.168,0.768,0.062c0.195,0.229,0.168,0.572-0.061,0.768
			c-1.925,1.642-4.382,2.904-7.305,3.756C1.938,30.603,1.887,30.61,1.836,30.61z"/>
	</g>
	<g>
		<path fill="#5D5D5D" d="M4.767,36.333c-0.216,0-0.421-0.129-0.506-0.342c-0.111-0.279,0.024-0.596,0.304-0.707
			c8.637-3.447,13.29-8.499,14.227-15.445c0.219-1.627-0.045-2.927-0.785-3.863c-1.039-1.315-2.708-1.495-2.725-1.496
			c-0.104-0.011-2.41-0.219-3.078,2.096c-0.047,0.163-0.096,0.34-0.148,0.53c-0.803,2.914-2.474,8.979-10.535,11.002
			c-0.292,0.072-0.587-0.104-0.661-0.395c-0.073-0.292,0.104-0.588,0.396-0.661c7.446-1.87,8.946-7.312,9.751-10.235
			c0.054-0.195,0.104-0.376,0.152-0.543c0.74-2.565,3.096-3.003,4.236-2.877c0.077,0.007,2.122,0.214,3.457,1.892
			c0.938,1.178,1.281,2.757,1.02,4.696c-0.979,7.268-5.993,12.755-14.901,16.31C4.902,36.321,4.833,36.333,4.767,36.333z"/>
	</g>
	<g>
		<path fill="#5D5D5D" d="M20.778,37.219c-0.139,0-0.276-0.052-0.383-0.156c-4.307-4.248-2.992-6.935-1.721-9.531l0.042-0.086
			c0.399-0.816,1.525-4.301,2.073-6.054c1.423-7.001-3.786-8.836-4.009-8.911c-0.202-0.065-5.102-1.577-6.735,3.043
			c-1.523,6.326-5.617,8.969-8.785,10.074c-0.284,0.099-0.594-0.051-0.693-0.336c-0.099-0.283,0.051-0.594,0.334-0.692
			c2.917-1.017,6.688-3.459,8.091-9.326c0.004-0.018,0.01-0.035,0.016-0.053c1.978-5.662,8.052-3.764,8.114-3.744
			c0.068,0.023,6.361,2.234,4.728,10.19c-0.003,0.018-0.008,0.035-0.014,0.053c-0.064,0.209-1.604,5.135-2.143,6.234l-0.042,0.086
			c-1.203,2.457-2.242,4.579,1.508,8.277c0.214,0.211,0.217,0.557,0.005,0.77C21.059,37.166,20.919,37.219,20.778,37.219z"/>
	</g>
	<g>
		<path fill="#5D5D5D" d="M18.69,38.937c-0.161,0-0.32-0.071-0.428-0.208c-1.716-2.176-2.41-4.627-2.678-5.961
			C14.115,33.963,10.65,36.54,6.507,38c-0.282,0.101-0.594-0.048-0.694-0.332c-0.1-0.283,0.049-0.595,0.332-0.694
			c5.198-1.833,9.419-5.609,9.461-5.648c0.153-0.137,0.372-0.177,0.562-0.102c0.191,0.074,0.325,0.251,0.344,0.456
			c0.004,0.034,0.354,3.522,2.604,6.376c0.187,0.236,0.146,0.578-0.091,0.765C18.927,38.899,18.809,38.937,18.69,38.937z"/>
	</g>
	<g>
		<path fill="#5D5D5D" d="M16.488,39.969c-0.169,0-0.336-0.079-0.442-0.227c-0.835-1.156-1.34-2.57-1.596-3.436
			c-1.084,0.77-3.334,2.297-5.389,3.252c-0.272,0.127-0.596,0.008-0.723-0.264c-0.126-0.273-0.008-0.597,0.265-0.723
			c2.671-1.242,5.815-3.586,5.847-3.609c0.149-0.111,0.344-0.139,0.518-0.073c0.173,0.065,0.302,0.215,0.34,0.397
			c0.005,0.021,0.483,2.241,1.621,3.818c0.176,0.244,0.121,0.584-0.122,0.76C16.71,39.935,16.599,39.969,16.488,39.969z"/>
	</g>
	<g>
		<path fill="#5D5D5D" d="M14.496,40.52c-0.18,0-0.356-0.089-0.459-0.252c-0.291-0.456-0.526-0.924-0.696-1.296
			c-0.465,0.401-1.161,0.946-1.941,1.365c-0.265,0.144-0.595,0.044-0.737-0.222c-0.142-0.265-0.043-0.595,0.222-0.737
			c1.225-0.657,2.263-1.706,2.273-1.718c0.131-0.133,0.323-0.191,0.506-0.148c0.183,0.039,0.333,0.172,0.396,0.348
			c0.003,0.01,0.343,0.957,0.896,1.823c0.162,0.253,0.087,0.59-0.166,0.751C14.697,40.493,14.596,40.52,14.496,40.52z"/>
	</g>
	<g>
		<path fill="#5D5D5D" d="M22.641,35.311c-0.153,0-0.306-0.064-0.413-0.189c-1.392-1.615-2.668-4.473-0.851-8.91
			c0.113-0.277,0.431-0.413,0.71-0.297c0.278,0.113,0.411,0.432,0.297,0.709c-1.608,3.928-0.524,6.402,0.668,7.787
			c0.196,0.229,0.171,0.571-0.057,0.768C22.893,35.267,22.766,35.311,22.641,35.311z"/>
	</g>
	<g>
		<path fill="#5D5D5D" d="M22.876,23.938c-0.043,0-0.087-0.005-0.132-0.016c-0.291-0.072-0.469-0.368-0.396-0.66
			c1.267-5.101,0.476-11.16-5.541-12.865c-5.876-1.666-8.265,3.016-8.526,3.575C8.203,14.318,7.794,15.87,6.189,18.9
			c-0.007,0.013-0.015,0.026-0.023,0.04c-1.467,2.282-3.412,3.332-4.785,3.812c-0.285,0.1-0.594-0.051-0.693-0.335
			c-0.099-0.283,0.051-0.594,0.334-0.692c1.208-0.423,2.918-1.347,4.216-3.355c1.692-3.2,1.985-4.655,1.988-4.669
			c0.007-0.039,0.02-0.08,0.036-0.116c0.027-0.062,2.797-6.23,9.842-4.234c5.573,1.579,8.047,7.143,6.301,14.175
			C23.343,23.772,23.12,23.938,22.876,23.938z"/>
	</g>
	<g>
		<path fill="#5D5D5D" d="M24.337,32.77c-0.199,0-0.391-0.109-0.486-0.299c-1.053-2.08-0.21-4.828,0.684-7.737
			c0.146-0.473,0.292-0.95,0.432-1.43c0.136-0.466,3.206-11.456-7.117-14.961c-3.486-1.184-6.383-0.871-8.61,0.931
			C9.004,9.462,8.662,9.426,8.473,9.193C8.284,8.959,8.32,8.616,8.554,8.427C11.091,6.375,14.336,6,18.199,7.312
			c11.298,3.837,7.959,15.79,7.812,16.297c-0.142,0.483-0.289,0.967-0.437,1.444c-0.826,2.693-1.607,5.237-0.752,6.926
			c0.136,0.269,0.028,0.596-0.24,0.732C24.503,32.75,24.419,32.77,24.337,32.77z"/>
	</g>
	<g>
		<path fill="#5D5D5D" d="M1.593,19.566c-0.187,0-0.368-0.096-0.47-0.268c-0.152-0.259-0.066-0.593,0.193-0.746
			c1.05-0.618,2.424-1.703,3.008-3.363c0.397-1.13,0.969-2.611,1.874-4.047c0.16-0.254,0.496-0.331,0.751-0.17
			c0.254,0.16,0.331,0.497,0.17,0.75c-0.846,1.344-1.389,2.751-1.768,3.828c-0.693,1.971-2.277,3.23-3.483,3.94
			C1.782,19.542,1.687,19.566,1.593,19.566z"/>
	</g>
	<g>
		<path fill="#5D5D5D" d="M2.267,15.772c-0.078,0-0.158-0.017-0.233-0.053c-0.271-0.129-0.387-0.454-0.258-0.725
			c1.458-3.07,3.813-7.372,7.409-9.279c3.168-1.68,9.519-3.364,16.458,4.241c0.202,0.222,0.187,0.566-0.035,0.769
			c-0.223,0.203-0.566,0.187-0.77-0.035C18.717,3.98,13.224,4.804,9.694,6.677c-3.31,1.755-5.543,5.854-6.935,8.785
			C2.666,15.657,2.47,15.772,2.267,15.772z"/>
	</g>
	<g>
		<path fill="#5D5D5D" d="M26.042,29.058c-0.069,0-0.14-0.014-0.207-0.042c-0.278-0.114-0.41-0.432-0.296-0.71
			c0.036-0.087,3.526-8.702,1.011-14.875c-0.113-0.278,0.021-0.596,0.299-0.709c0.278-0.114,0.596,0.021,0.709,0.299
			c2.687,6.59-0.86,15.332-1.012,15.701C26.459,28.931,26.256,29.058,26.042,29.058z"/>
	</g>
	<g>
		<path fill="#5D5D5D" d="M29.157,14.471c-0.277,0-0.515-0.211-0.541-0.494c-0.077-0.828-0.794-5.137-7.338-8.681
			c-0.265-0.143-0.363-0.473-0.22-0.738c0.143-0.264,0.474-0.362,0.737-0.219c7.032,3.808,7.818,8.613,7.904,9.537
			c0.027,0.299-0.192,0.564-0.492,0.593C29.191,14.471,29.175,14.471,29.157,14.471z"/>
	</g>
	<g>
		<path fill="#5D5D5D" d="M8.4,5.066c-0.167,0-0.331-0.076-0.438-0.221C7.783,4.604,7.833,4.263,8.075,4.084
			c0.182-0.134,4.516-3.267,10.884-1.033c0.283,0.099,0.433,0.41,0.333,0.693s-0.409,0.434-0.694,0.333
			c-5.827-2.044-9.834,0.852-9.875,0.881C8.626,5.031,8.512,5.066,8.4,5.066z"/>
	</g>
	<g>
		<path fill="#5D5D5D" d="M26.711,7.036c-0.161,0-0.319-0.071-0.428-0.206C20.791-0.098,14.236,1.789,13.96,1.873
			c-0.288,0.087-0.591-0.075-0.679-0.362c-0.087-0.287,0.073-0.591,0.36-0.679c0.074-0.022,7.526-2.207,13.496,5.322
			c0.187,0.235,0.147,0.578-0.089,0.765C26.948,6.997,26.829,7.036,26.711,7.036z"/>
	</g>
</g>
</svg>
