<?xml version="1.0" encoding="utf-8"?>
<!-- Generator: Adobe Illustrator 20.1.0, SVG Export Plug-In . SVG Version: 6.00 Build 0)  -->
<svg version="1.1" id="Layer_1" xmlns="http://www.w3.org/2000/svg" xmlns:xlink="http://www.w3.org/1999/xlink" x="0px" y="0px"
	 viewBox="0 0 34.6 41" style="enable-background:new 0 0 34.6 41;" xml:space="preserve">
<style type="text/css">
	.st0{fill:#5D5D5D;}
</style>
<g>
	<path class="st0" d="M17.7,14.4L5.9,16.5c-0.6,0.1-1,0.7-0.9,1.3l3.9,21.7c0.1,0.6,0.7,1,1.3,0.9L22,38.4c0.6-0.1,1-0.7,0.9-1.3
		L19,15.3C18.9,14.7,18.3,14.3,17.7,14.4z M11.5,16.9l1.2-0.2c0.3,0,0.5,0.1,0.5,0.4c0,0.3-0.1,0.5-0.4,0.5l-1.2,0.2
		c-0.3,0-0.5-0.1-0.5-0.4C11,17.2,11.2,16.9,11.5,16.9z M15.7,37.5c-0.6,0.1-1.1-0.3-1.2-0.9c-0.1-0.6,0.3-1.1,0.9-1.2
		c0.6-0.1,1.1,0.3,1.2,0.9C16.7,36.8,16.3,37.4,15.7,37.5z M9.7,35.3L6.9,19.8l10.8-1.9l2.8,15.5L9.7,35.3z"/>
	<path class="st0" d="M34.1,17.9l-9.7-2.7l6-8.1l-9.5,3.5L21,0.5L15.5,9L9.6,0.7L10,10.8L0.5,7.6L6.3,15c0.2-0.1,0.5-0.2,0.7-0.2
		l0.9-0.2l-3.2-4.1l6.9,2.3l-0.3-7.3l4.2,5.9l4-6.1l-0.1,7.3l6.8-2.6L21.9,16l7,1.9l-7,2.2l4.5,5.7l-4-1.4l0.3,1.6l8,2.7l-6.3-7.9
		L34.1,17.9z"/>
</g>
</svg>
