<?xml version="1.0" encoding="utf-8"?>
<!-- Generator: Adobe Illustrator 20.1.0, SVG Export Plug-In . SVG Version: 6.00 Build 0)  -->
<svg version="1.1" id="Layer_1" xmlns="http://www.w3.org/2000/svg" xmlns:xlink="http://www.w3.org/1999/xlink" x="0px" y="0px"
	 viewBox="0 0 46.1 38.2" style="enable-background:new 0 0 46.1 38.2;" xml:space="preserve">
<style type="text/css">
	.st0{fill:#5D5D5D;}
</style>
<g>
	<path class="st0" d="M27.9,26.8C27.9,26.8,27.9,26.8,27.9,26.8l-8.3,0v-6.5c-0.6-1.1-1-2.2-1.2-3.3v1.5H8.2c0-0.1,0-0.2,0-0.3
		c0.1-2.5,0.7-4.7,1.5-6.8h8.6v0.1c0.3-1.2,0.7-2.3,1.2-3.4V3.2c1.3,0,2.5,0.3,3.7,0.6c0.1-0.1,0.2-0.1,0.2-0.2
		c0.8-0.6,1.7-1.1,2.7-1.4c-2.2-0.9-4.7-1.5-7.2-1.5C8.8,0.7,0.5,8.9,0.5,19.1c0,10.2,8.2,18.4,18.4,18.4c7.2,0,13.4-4.1,16.4-10.1
		l-0.5-0.8C32.5,27.3,30.1,27.3,27.9,26.8z M18.3,3.2v7h-8.1c1.3-2.8,3-5,4.2-6.3C15.7,3.4,17,3.2,18.3,3.2z M12.1,4.7
		C11,6.2,9.8,8,8.9,10.2H5.8C7.3,7.8,9.5,5.9,12.1,4.7z M5,11.4h3.4c-0.8,2-1.3,4.3-1.4,6.7c0,0.1,0,0.2,0,0.4H3
		C3.1,15.9,3.8,13.5,5,11.4z M3,19.7h4c0.1,2.4,0.7,4.8,1.7,7.1H5C3.8,24.7,3.1,22.3,3,19.7z M5.8,28h3.5c1,2,2.3,4,4,5.9
		C10.2,32.8,7.6,30.7,5.8,28z M18.3,35c-0.9,0-1.9-0.1-2.7-0.3c-2.1-2.2-3.7-4.4-4.9-6.6h7.7V35z M18.3,26.8H10
		c-1.1-2.3-1.6-4.7-1.8-7.1h10.1V26.8z M19.6,35v-7h7.7c-1.2,2.3-2.8,4.5-4.9,6.6C21.4,34.8,20.5,34.9,19.6,35z M24.6,33.9
		c1.7-1.9,3-3.9,4-5.9h3.5C30.3,30.7,27.7,32.8,24.6,33.9z"/>
	<path class="st0" d="M45.3,31.7l-6.9-9.8c0,0-0.1-0.1-0.1-0.1c3.7-3.5,4.4-9.4,1.4-13.7c-3.3-4.7-9.9-5.9-14.7-2.5
		c-4.7,3.3-5.9,9.9-2.5,14.7c3.1,4.3,8.8,5.6,13.3,3.3c0,0,0,0.1,0.1,0.1l6.9,9.8c0.5,0.7,1.5,0.9,2.2,0.4
		C45.6,33.4,45.7,32.4,45.3,31.7z M35.3,20.3c-3.3,2.4-8,1.6-10.3-1.8c-2.4-3.3-1.6-8,1.8-10.3c3.3-2.4,8-1.6,10.3,1.8
		C39.4,13.3,38.6,17.9,35.3,20.3z"/>
</g>
</svg>
