<?xml version="1.0" encoding="utf-8"?>
<!-- Generator: Adobe Illustrator 20.1.0, SVG Export Plug-In . SVG Version: 6.00 Build 0)  -->
<svg version="1.1" id="Layer_1" xmlns="http://www.w3.org/2000/svg" xmlns:xlink="http://www.w3.org/1999/xlink" x="0px" y="0px"
	 viewBox="0 0 33.8 41" style="enable-background:new 0 0 33.8 41;" xml:space="preserve">
<style type="text/css">
	.st0{fill:#5D5D5D;}
</style>
<g>
	<path class="st0" d="M33,37.3l-9.1-12.9c0,0-0.1-0.1-0.1-0.1c4.9-4.6,5.8-12.3,1.8-18C21.2,0.1,12.5-1.3,6.3,3
		C0.1,7.4-1.4,16.1,3,22.3c4,5.7,11.5,7.4,17.5,4.3c0,0,0,0.1,0.1,0.2l9.1,12.9c0.6,0.9,1.9,1.1,2.8,0.5
		C33.4,39.5,33.6,38.2,33,37.3z M19.9,22.3c-4.4,3.1-10.5,2.1-13.6-2.3C3.2,15.6,4.3,9.5,8.7,6.4C13,3.3,19.1,4.3,22.2,8.7
		C25.3,13.1,24.3,19.2,19.9,22.3z"/>
</g>
</svg>
