<?xml version="1.0" encoding="utf-8"?>
<!-- Generator: Adobe Illustrator 20.1.0, SVG Export Plug-In . SVG Version: 6.00 Build 0)  -->
<svg version="1.1" id="Layer_1" xmlns="http://www.w3.org/2000/svg" xmlns:xlink="http://www.w3.org/1999/xlink" x="0px" y="0px"
	 viewBox="0 0 46.1 36" style="enable-background:new 0 0 46.1 36;" xml:space="preserve">
<style type="text/css">
	.st0{fill:#5D5D5D;}
</style>
<g>
	<path class="st0" d="M39.1,11.5c1.4-1.2,2.2-2.9,2.2-4.7c0-3.4-2.8-6.2-6.2-6.2c-3.4,0-6.2,2.8-6.2,6.2c0,1.8,0.8,3.5,2.2,4.7
		c-0.7,0.3-1.3,0.7-1.9,1.1c0-3.3-2.7-6-6-6s-6,2.7-6,6c-0.6-0.4-1.2-0.8-1.9-1.1c1.4-1.2,2.2-2.9,2.2-4.7c0-3.4-2.8-6.2-6.2-6.2
		S4.8,3.3,4.8,6.8c0,1.8,0.8,3.5,2.2,4.7c-3.9,1.6-6.5,5.4-6.5,9.7c0,2,0.6,3.9,1.6,5.6l0.1,0.2L2.5,27c2.7,1.1,5.6,1.7,8.6,1.7
		c0.5,0,0.9,0,1.4-0.1c0.1,1.9,0.7,3.6,1.6,5.1c2.7,1.1,5.8,1.7,9,1.7s6.3-0.6,9-1.7c0.9-1.5,1.5-3.3,1.6-5.1c0.5,0,0.9,0.1,1.4,0.1
		c3,0,5.9-0.6,8.6-1.7l0.2-0.1l0.1-0.2c1.1-1.7,1.6-3.6,1.6-5.6C45.5,16.9,42.9,13.1,39.1,11.5z M12.5,27.3
		c-3.2,0.2-6.4-0.3-9.3-1.4c-0.9-1.4-1.3-3.1-1.3-4.7c0-4.1,2.8-7.8,6.8-8.9l1.6-0.4l-1.4-0.8c-1.6-0.9-2.6-2.5-2.6-4.3
		c0-2.7,2.2-4.9,4.9-4.9c2.7,0,4.9,2.2,4.9,4.9c0,1.8-1,3.4-2.6,4.3L12,11.8l1.6,0.4c1.5,0.4,2.8,1.2,3.8,2.2
		c0.4,1.2,1.1,2.2,2.1,2.9c0.1,0.2,0.2,0.5,0.3,0.7C15.7,19.3,12.8,22.9,12.5,27.3z M42.9,25.9c-2.9,1.2-6.1,1.6-9.3,1.4
		c-0.3-4.3-3.3-7.9-7.2-9.3c0.1-0.2,0.2-0.5,0.3-0.7c0.9-0.7,1.7-1.7,2.1-2.9c1.1-1,2.4-1.8,3.8-2.2l1.6-0.4l-1.4-0.8
		c-1.6-0.9-2.6-2.5-2.6-4.3c0-2.7,2.2-4.9,4.9-4.9c2.7,0,4.9,2.2,4.9,4.9c0,1.8-1,3.4-2.6,4.3l-1.4,0.8l1.6,0.4
		c4,1.1,6.8,4.7,6.8,8.9C44.2,22.8,43.8,24.4,42.9,25.9z"/>
</g>
</svg>
