<?xml version="1.0" encoding="UTF-8"?>
<svg width="1440px" height="441px" viewBox="0 0 1440 441" version="1.1" xmlns="http://www.w3.org/2000/svg" xmlns:xlink="http://www.w3.org/1999/xlink">
    <!-- Generator: Sketch 47.1 (45422) - http://www.bohemiancoding.com/sketch -->
    <title>Group 3</title>
    <desc>Created with Sketch.</desc>
    <defs>
        <rect id="path-1" x="0" y="0" width="1440" height="741"></rect>
    </defs>
    <g id="Page-1" stroke="none" stroke-width="1" fill="none" fill-rule="evenodd">
        <g id="Group-3" transform="translate(0.000000, -300.000000)">
            <mask id="mask-2" fill="white">
                <use xlink:href="#path-1"></use>
            </mask>
            <g id="Mask"></g>
            <g mask="url(#mask-2)">
                <g transform="translate(720.113107, 540.629347) scale(-1, 1) rotate(5.000000) translate(-720.113107, -540.629347) translate(-870.886893, 137.129347)">
                    <path d="M8.7680758,315.470582 C237.589923,273.472032 391.865071,252.472757 471.593519,252.472757 C932.48875,252.472757 1187.38368,351.616043 1433.06756,358.271528 C1561.41659,361.748456 1811.62842,312.437079 2011.88693,325.107715 C2187.13442,336.195869 2448.02181,422.200677 2720.23534,420.313189 C2782.04326,419.884623 2855.35718,436.094688 2940.17708,468.943384 L2913.06745,553.807184 L8.7680758,553.807184 L8.7680758,315.470582 Z" id="Rectangle-2" fill="#0D6EC1" transform="translate(1474.472580, 403.139970) scale(-1, 1) rotate(-10.000000) translate(-1474.472580, -403.139970) "></path>
                    <path d="M6.95794028,410.631617 C254.294148,368.633067 421.051957,347.633791 507.231368,347.633791 C1005.41841,347.633791 1280.93732,446.777078 1546.49989,453.432563 C1685.23385,456.90949 1955.69075,407.598113 2172.15251,420.26875 C2361.57957,431.356904 2643.5758,517.361712 2937.81458,515.474224 C3004.62348,515.045657 3083.86935,531.255722 3175.55218,564.104419 L3146.24906,648.968219 L6.95794028,648.968219 L6.95794028,410.631617 Z" id="Rectangle-2-Copy" fill="#227BC8" transform="translate(1591.255060, 498.301005) rotate(-3.000000) translate(-1591.255060, -498.301005) "></path>
                    <path d="M0.276666187,458.67906 C231.735157,438.219446 387.328626,427.989639 467.057074,427.989639 C927.952305,427.989639 1178.89227,490.818772 1424.57615,496.736677 C1552.92518,499.82828 1803.13701,455.981738 2003.39552,467.248176 C2178.64301,477.107508 2439.5304,553.581006 2711.74393,551.902695 C2773.55185,551.521623 2846.86577,565.93524 2931.68568,595.143546 L2904.57604,670.602486 L0.276666187,670.602486 L0.276666187,458.67906 Z" id="Rectangle-2" fill="#0D6EC1"></path>
                </g>
            </g>
        </g>
    </g>
</svg>