<?xml version="1.0" encoding="UTF-8"?>
<svg width="18px" height="18px" viewBox="0 0 18 18" version="1.1" xmlns="http://www.w3.org/2000/svg" xmlns:xlink="http://www.w3.org/1999/xlink">
    <!-- Generator: Sketch 48.2 (47327) - http://www.bohemiancoding.com/sketch -->
    <title>ic-instagram</title>
    <desc>Created with Sketch.</desc>
    <defs></defs>
    <g id="Page-1" stroke="none" stroke-width="1" fill="none" fill-rule="evenodd">
        <g id="ic-instagram" fill-rule="nonzero">
            <rect id="Rectangle" fill="#3B3B3B" x="0" y="0" width="18" height="18" rx="9"></rect>
            <path d="M13.0325443,0 L4.96724279,0 C2.22830678,0 0,2.22841324 0,4.96734926 L0,13.0326507 C0,15.7716932 2.22830678,18 4.96724279,18 L13.0325443,18 C15.7716932,18 18,15.7715868 18,13.0326507 L18,4.96734926 C18.0001065,2.22841324 15.7716932,0 13.0325443,0 Z M16.4030592,13.0326507 C16.4030592,14.8910814 14.8910814,16.4029528 13.0326507,16.4029528 L4.96724279,16.4029528 C3.10891862,16.4030592 1.59704724,14.8910814 1.59704724,13.0326507 L1.59704724,4.96734926 C1.59704724,3.10902509 3.10891862,1.59704724 4.96724279,1.59704724 L13.0325443,1.59704724 C14.8909749,1.59704724 16.4029528,3.10902509 16.4029528,4.96734926 L16.4029528,13.0326507 L16.4030592,13.0326507 Z" id="Shape" fill="#3B3B3B"></path>
            <path d="M8.5,4 C6.01866263,4 4,6.01870897 4,8.5001033 C4,10.9813943 6.01866263,13 8.5,13 C10.9813374,13 13,10.9813943 13,8.5001033 C13,6.01870897 10.9813374,4 8.5,4 Z M8.5,11.4503811 C6.87314923,11.4503811 5.54948006,10.1268881 5.54948006,8.5 C5.54948006,6.87300859 6.87304593,5.54941233 8.5,5.54941233 C10.1269541,5.54941233 11.4505199,6.87300859 11.4505199,8.5 C11.4505199,10.1268881 10.1268508,11.4503811 8.5,11.4503811 Z" id="Shape" fill="#FFFFFF"></path>
            <path d="M14,3 C13.7372727,3 13.4791818,3.10636364 13.2936364,3.29272727 C13.1071818,3.47818182 13,3.73636364 13,4 C13,4.26281818 13.1072727,4.52090909 13.2936364,4.70727273 C13.4790909,4.89272727 13.7372727,5 14,5 C14.2636364,5 14.5209091,4.89272727 14.7072727,4.70727273 C14.8936364,4.52090909 15,4.26272727 15,4 C15,3.73636364 14.8936364,3.47818182 14.7072727,3.29272727 C14.5218182,3.10636364 14.2636364,3 14,3 Z" id="Shape" fill="#FFFFFF"></path>
        </g>
    </g>
</svg>