<?xml version="1.0" encoding="UTF-8"?>
<svg width="19px" height="18px" viewBox="0 0 19 18" version="1.1" xmlns="http://www.w3.org/2000/svg" xmlns:xlink="http://www.w3.org/1999/xlink">
    <!-- Generator: Sketch 48.2 (47327) - http://www.bohemiancoding.com/sketch -->
    <title>ic-linkedin</title>
    <desc>Created with Sketch.</desc>
    <defs></defs>
    <g id="Page-1" stroke="none" stroke-width="1" fill="none" fill-rule="evenodd">
        <g id="ic-linkedin" fill="#3B3B3B" fill-rule="nonzero">
            <path d="M18.7915194,11.033432 L18.7915194,17.9807767 L14.7638883,17.9807767 L14.7638883,11.4987233 C14.7638883,9.87037864 14.181335,8.75909709 12.723466,8.75909709 C11.610568,8.75909709 10.9482816,9.50801942 10.6569175,10.2324757 C10.550665,10.491466 10.5233155,10.8519466 10.5233155,11.2144806 L10.5233155,17.9807767 L6.4943301,17.9807767 C6.4943301,17.9807767 6.54859223,7.00230583 6.4943301,5.86485437 L10.5229223,5.86485437 L10.5229223,7.58223786 C10.5147524,7.59508252 10.5041359,7.60893204 10.4964466,7.6213835 L10.5229223,7.6213835 L10.5229223,7.58223786 C11.0581602,6.75786408 12.0140388,5.58021845 14.1535922,5.58021845 C16.8043544,5.58017476 18.7915194,7.31188835 18.7915194,11.033432 Z M2.27983981,0.0243786408 C0.901529126,0.0243786408 0,0.928441748 0,2.11731553 C0,3.28028155 0.875446602,4.21178155 2.22636408,4.21178155 L2.2532767,4.21178155 C3.65828155,4.21178155 4.53206796,3.28045631 4.53206796,2.11731553 C4.50559223,0.928441748 3.65828155,0.0243786408 2.27983981,0.0243786408 Z M0.239286408,17.9807767 L4.26674272,17.9807767 L4.26674272,5.86485437 L0.239286408,5.86485437 L0.239286408,17.9807767 Z" id="LinkedIn"></path>
        </g>
    </g>
</svg>