<?xml version="1.0" encoding="UTF-8"?>
<svg width="21px" height="17px" viewBox="0 0 21 17" version="1.1" xmlns="http://www.w3.org/2000/svg" xmlns:xlink="http://www.w3.org/1999/xlink">
    <!-- Generator: Sketch 47.1 (45422) - http://www.bohemiancoding.com/sketch -->
    <title>001-twitter-logo-silhouette</title>
    <desc>Created with Sketch.</desc>
    <defs></defs>
    <g id="Page-1" stroke="none" stroke-width="1" fill="none" fill-rule="evenodd" opacity="0.769587862">
        <g id="Home-lg-v01" transform="translate(-1061.000000, -24.000000)" fill-rule="nonzero" fill="#010002">
            <g id="Group-17" transform="translate(1039.000000, 24.000000)">
                <g id="001-twitter-logo-silhouette" transform="translate(22.000000, 0.000000)">
                    <path d="M20.8163265,2.0113675 C20.0501688,2.35268819 19.2280926,2.58416798 18.3643497,2.68751144 C19.24629,2.15653395 19.9213931,1.31432916 20.2413596,0.313860464 C19.4140793,0.805579751 18.5009146,1.16263108 17.5279198,1.35618635 C16.7487689,0.520513197 15.6405017,0 14.411248,0 C12.0529449,0 10.1407989,1.92245519 10.1407989,4.2921735 C10.1407989,4.62826205 10.17852,4.95651947 10.2513773,5.27041413 C6.7028681,5.09122162 3.55629833,3.3819508 1.45034251,0.78465116 C1.08221265,1.41763843 0.872790542,2.15520026 0.872790542,2.94251879 C0.872790542,4.43210781 1.62724756,5.74643697 2.7719433,6.51539169 C2.07211223,6.49186412 1.41391387,6.29830886 0.837688444,5.97658307 L0.837688444,6.03020404 C0.837688444,8.10958945 2.31017384,9.84502101 4.26262601,10.2399969 C3.90490434,10.3367745 3.52769284,10.3903955 3.13745411,10.3903955 C2.86170536,10.3903955 2.59503825,10.3629352 2.33357524,10.3106138 C2.87728361,12.0172856 4.45385081,13.2583647 6.32177904,13.2923908 C4.86099434,14.4432581 3.01908657,15.1272331 1.01850507,15.1272331 C0.673810625,15.1272331 0.334286261,15.1063045 0,15.06838 C1.8900371,16.2885647 4.13388431,17 6.5455209,17 C14.4009079,17 18.6947925,10.4584134 18.6947925,4.78522647 L18.6804727,4.22942193 C19.5194537,3.62779335 20.2452712,2.8719019 20.8163265,2.0113675 Z" id="Shape"></path>
                </g>
            </g>
        </g>
    </g>
</svg>