<?xml version="1.0" encoding="utf-8"?>
<!-- Generator: Adobe Illustrator 15.0.0, SVG Export Plug-In . SVG Version: 6.00 Build 0)  -->
<!DOCTYPE svg PUBLIC "-//W3C//DTD SVG 1.1//EN" "http://www.w3.org/Graphics/SVG/1.1/DTD/svg11.dtd">
<svg version="1.1" id="Layer_1" xmlns="http://www.w3.org/2000/svg" xmlns:xlink="http://www.w3.org/1999/xlink" x="0px" y="0px"
	 width="55.44px" height="55.44px" viewBox="0 0 55.44 55.44" enable-background="new 0 0 55.44 55.44" xml:space="preserve">
<path fill="#3399FF" d="M50.818,0.62H4.622c-2.21,0-4.003,1.792-4.003,4.002v46.196c0,2.211,1.793,4.003,4.003,4.003H28.41
	c0-4.359,0-11.394,0-18.472h-5.799v-7.622h5.799c0-1.967,0-3.858,0-5.605c0-13.676,15.806-10.089,15.806-10.089v7.175h-4.037
	c0,0-3.586-0.449-3.586,4.483c0,0.789,0,2.208,0,4.036h7.398l-1.121,7.622h-6.277c0,6.421,0,13.865,0,18.472h14.225
	c2.211,0,4.004-1.792,4.004-4.003V4.622C54.822,2.412,53.029,0.62,50.818,0.62z"/>
</svg>
