<?xml version="1.0" encoding="utf-8"?>
<!-- Generator: Adobe Illustrator 15.0.0, SVG Export Plug-In . SVG Version: 6.00 Build 0)  -->
<!DOCTYPE svg PUBLIC "-//W3C//DTD SVG 1.1//EN" "http://www.w3.org/Graphics/SVG/1.1/DTD/svg11.dtd">
<svg version="1.1" id="Layer_1" xmlns="http://www.w3.org/2000/svg" xmlns:xlink="http://www.w3.org/1999/xlink" x="0px" y="0px"
	 width="37.44px" height="37.44px" viewBox="0 0 37.44 37.44" enable-background="new 0 0 37.44 37.44" xml:space="preserve">
<g>
	<path fill="#616161" d="M18.719,0.72C8.794,0.72,0.72,8.794,0.72,18.719c0,9.926,8.074,18.001,17.999,18.001
		c9.927,0,18.001-8.075,18.001-18.001C36.72,8.794,28.646,0.72,18.719,0.72z M18.719,32.266c-7.469,0-13.546-6.077-13.546-13.547
		c0-7.469,6.077-13.546,13.546-13.546c7.47,0,13.548,6.077,13.548,13.546C32.267,26.189,26.189,32.266,18.719,32.266z"/>
	<polygon fill="#616161" points="18.232,20.098 13.966,20.098 13.966,22.326 20.46,22.326 20.46,10.449 18.232,10.449 	"/>
</g>
</svg>
