<?xml version="1.0" encoding="utf-8"?>
<!-- Generator: Adobe Illustrator 15.0.0, SVG Export Plug-In . SVG Version: 6.00 Build 0)  -->
<!DOCTYPE svg PUBLIC "-//W3C//DTD SVG 1.1//EN" "http://www.w3.org/Graphics/SVG/1.1/DTD/svg11.dtd">
<svg version="1.1" id="Layer_1" xmlns="http://www.w3.org/2000/svg" xmlns:xlink="http://www.w3.org/1999/xlink" x="0px" y="0px"
	 width="62.64px" height="55.44px" viewBox="0 0 62.64 55.44" enable-background="new 0 0 62.64 55.44" xml:space="preserve">
<g>
	<polygon fill="#3399FF" points="29.126,32.607 11.776,22.682 1.713,31.47 19.064,41.396 	"/>
	<polygon fill="#3399FF" points="0.606,11.729 12.076,21.131 30.165,10.021 18.695,0.618 	"/>
	<polygon fill="#3399FF" points="19.956,43.486 19.229,44.119 18.391,43.64 12.619,40.337 12.619,44.068 30.165,54.822 
		30.165,34.568 30.018,34.697 	"/>
	<polygon fill="#3399FF" points="33.512,32.607 43.575,41.396 60.925,31.47 50.862,22.682 	"/>
	<polygon fill="#3399FF" points="62.034,11.729 43.945,0.618 32.475,10.021 50.563,21.131 	"/>
	<polygon fill="#3399FF" points="43.411,44.119 42.683,43.486 32.621,34.697 32.475,34.568 32.475,54.822 50.021,44.068 
		50.021,40.337 44.249,43.64 	"/>
</g>
</svg>
