<?xml version="1.0" encoding="utf-8"?>
<!-- Generator: Adobe Illustrator 15.0.0, SVG Export Plug-In . SVG Version: 6.00 Build 0)  -->
<!DOCTYPE svg PUBLIC "-//W3C//DTD SVG 1.1//EN" "http://www.w3.org/Graphics/SVG/1.1/DTD/svg11.dtd">
<svg version="1.1" id="Layer_1" xmlns="http://www.w3.org/2000/svg" xmlns:xlink="http://www.w3.org/1999/xlink" x="0px" y="0px"
	 width="37.44px" height="37.44px" viewBox="0 0 37.44 37.44" enable-background="new 0 0 37.44 37.44" xml:space="preserve">
<g>
	<path fill="#FFFFFF" d="M18.719,0.72c-9.925,0-17.999,8.075-17.999,18c0,9.926,8.074,18.001,17.999,18.001
		c9.926,0,18.001-8.075,18.001-18.001C36.72,8.794,28.645,0.72,18.719,0.72z M18.719,32.266c-7.469,0-13.546-6.077-13.546-13.547
		c0-7.469,6.077-13.546,13.546-13.546c7.471,0,13.547,6.077,13.547,13.546C32.266,26.189,26.19,32.266,18.719,32.266z"/>
	<polygon fill="#FFFFFF" points="18.233,20.098 13.966,20.098 13.966,22.326 20.459,22.326 20.459,10.448 18.233,10.448 	"/>
</g>
</svg>
