<?xml version="1.0" encoding="utf-8"?>
<!-- Generator: Adobe Illustrator 15.0.0, SVG Export Plug-In . SVG Version: 6.00 Build 0)  -->
<!DOCTYPE svg PUBLIC "-//W3C//DTD SVG 1.1//EN" "http://www.w3.org/Graphics/SVG/1.1/DTD/svg11.dtd">
<svg version="1.1" id="Layer_1" xmlns="http://www.w3.org/2000/svg" xmlns:xlink="http://www.w3.org/1999/xlink" x="0px" y="0px"
	 width="63.36px" height="55.44px" viewBox="0 0 63.36 55.44" enable-background="new 0 0 63.36 55.44" xml:space="preserve">
<g>
	<g>
		<path fill="#3399FF" d="M59.358,0.82H37.305l4.42,4.421H58.61v28.94H4.75V5.241h16.884l4.422-4.421H4.002
			c-1.918,0-3.473,1.555-3.473,3.473v37.27c0,1.918,1.555,3.473,3.473,3.473h16.715v3.617l-6.169,6.17H31.68h17.133l-6.17-6.17
			v-3.617h16.715c1.918,0,3.473-1.555,3.473-3.473V4.292C62.831,2.375,61.276,0.82,59.358,0.82z"/>
	</g>
	<g>
		<path fill="#3399FF" d="M18.986,16.115h7.181v8.512c0,1.547,1.254,2.802,2.802,2.802h5.422c1.547,0,2.801-1.254,2.801-2.802
			v-8.512h7.182c1.094-1.094,1.094-2.868,0-3.962L33.661,1.439c-1.094-1.094-2.868-1.094-3.961,0L18.986,12.152
			C17.892,13.247,17.892,15.021,18.986,16.115z"/>
	</g>
</g>
</svg>
